<svg xmlns="http://www.w3.org/2000/svg" viewBox="0 0 100.89 94.41"><defs><style>.cls-1{fill:#00aeff;}.cls-2{fill:#d4d4d4;}</style></defs><g id="Layer_2" data-name="Layer 2"><g id="OBJECTS"><path class="cls-1" d="M71.55,23.2a3.74,3.74,0,0,0-1-.13c-2,0-3.83,1.63-5.15,4.59L49.16,64.08c-1.89,4.23-4.87,6.66-8.17,6.66s-6.27-2.43-8.17-6.66L16.57,27.67c-1.52-3.44-3.79-5.09-6.13-4.47C7.66,24,4.66,28,4.66,35.08v49.2A10.14,10.14,0,0,0,14.79,94.41h0A10.13,10.13,0,0,0,24.91,84.28v-32l7.66,17.17C36.3,77.79,43,82.77,50.42,82.77s14.12-5,17.85-13.33l3.44-7.71a65.89,65.89,0,0,0,5.61-26.65C77.32,28,74.33,24,71.55,23.2Z"/><path class="cls-2" d="M84.24.58A16.9,16.9,0,0,0,79.91,0c-7.35,0-14,5-17.7,13.38L50.42,39.8,38.63,13.38C34.89,5,28.27,0,20.93,0A16.9,16.9,0,0,0,16.6.58C7,3.16.51,13.28,0,26.37v4.56l.24-.78A49,49,0,0,0,1.68,23.8c1-5.95,4.05-10.44,8-11.52a6.64,6.64,0,0,1,1.66-.22c1.93,0,5.55.87,8.14,6.69L35.77,55.16C37.06,58.05,39,59.71,41,59.71s3.94-1.66,5.22-4.55L62.47,18.75c2.6-5.82,6.22-6.69,8.14-6.69a6.65,6.65,0,0,1,1.67.22c4.93,1.33,8.37,7.79,8.37,15.72V84.28A10.13,10.13,0,0,0,90.77,94.41h0a10.13,10.13,0,0,0,10.12-10.13V28C100.89,14.28,94.2,3.26,84.24.58Z"/></g></g></svg>